<?xml version="1.0" encoding="UTF-8"?>
<svg id="Layer_1" data-name="Layer 1" xmlns="http://www.w3.org/2000/svg" xmlns:xlink="http://www.w3.org/1999/xlink" viewBox="0 0 354.61 85.04">
  <defs>
    <style>
      .cls-1 {
        fill: #231f20;
      }

      .cls-2 {
        fill: #676767;
      }

      .cls-3 {
        fill: #40a1da;
      }

      .cls-3, .cls-4, .cls-5, .cls-6, .cls-7, .cls-8, .cls-9 {
        fill-rule: evenodd;
      }

      .cls-4 {
        fill: #6cbe45;
      }

      .cls-5 {
        fill: #fdb714;
      }

      .cls-6 {
        fill: url(#linear-gradient-2);
      }

      .cls-7 {
        fill: #ef4623;
      }

      .cls-8 {
        fill: url(#linear-gradient);
      }

      .cls-9 {
        fill: #80bae4;
      }
    </style>
    <linearGradient id="linear-gradient" x1="-576" y1="-587.91" x2="-561.69" y2="-613.21" gradientTransform="translate(484.82 -424.65) scale(.8 -.8)" gradientUnits="userSpaceOnUse">
      <stop offset="0" stop-color="#435f9a"/>
      <stop offset=".23" stop-color="#4c6caf"/>
      <stop offset="1" stop-color="#57b"/>
    </linearGradient>
    <linearGradient id="linear-gradient-2" x1="-576" y1="-587.91" x2="-561.69" y2="-613.21" xlink:href="#linear-gradient"/>
  </defs>
  <path id="use4865" class="cls-9" d="M38.96,53.81h31.84s-3.6,6.37-3.6,6.37l-8.54-.02,4.24,7.39-1.82,3.15h-3.72s-6.03-10.52-6.03-10.52l-8.69-.02-3.69-6.35Z"/>
  <path id="use4865-2" data-name="use4865" class="cls-9" d="M38.96,53.81h31.84s-3.6,6.37-3.6,6.37l-8.54-.02,4.24,7.39-1.82,3.15h-3.72s-6.03-10.52-6.03-10.52l-8.69-.02-3.69-6.35Z"/>
  <g id="use3439-6">
    <path id="path3336-6" class="cls-3" d="M37.76,31.75l-15.92,27.58-3.72-6.3,4.29-7.39-8.52-.02-1.82-3.15,1.85-3.22,12.13.04,4.36-7.52,7.34-.02Z"/>
  </g>
  <g id="use3439-6-2" data-name="use3439-6">
    <path id="path3336-6-2" data-name="path3336-6" class="cls-3" d="M37.76,31.75l-15.92,27.58-3.72-6.3,4.29-7.39-8.52-.02-1.82-3.15,1.85-3.22,12.13.04,4.36-7.52,7.34-.02Z"/>
  </g>
  <g id="use3449-5">
    <path id="path3336-6-3" data-name="path3336-6" class="cls-4" d="M57.52,41.71l-15.92-27.58,7.32-.07,4.25,7.41,4.28-7.37h3.64s1.86,3.22,1.86,3.22l-6.1,10.49,4.33,7.53-3.65,6.37Z"/>
  </g>
  <g id="use3449-5-2" data-name="use3449-5">
    <path id="path3336-6-4" data-name="path3336-6" class="cls-4" d="M57.52,41.71l-15.92-27.58,7.32-.07,4.25,7.41,4.28-7.37h3.64s1.86,3.22,1.86,3.22l-6.1,10.49,4.33,7.53-3.65,6.37Z"/>
  </g>
  <path id="path4260-0" class="cls-8" d="M32.02,43.11l15.92,27.58-7.32.07-4.25-7.41-4.28,7.37h-3.64s-1.86-3.22-1.86-3.22l6.1-10.49-4.33-7.53,3.65-6.37Z"/>
  <path id="path4260-0-2" data-name="path4260-0" class="cls-6" d="M32.02,43.11l15.92,27.58-7.32.07-4.25-7.41-4.28,7.37h-3.64s-1.86-3.22-1.86-3.22l6.1-10.49-4.33-7.53,3.65-6.37Z"/>
  <g id="use4354-5">
    <path id="path4260-0-3" data-name="path4260-0" class="cls-7" d="M50.48,30.96h-31.84s3.6-6.37,3.6-6.37l8.54.02-4.24-7.39,1.82-3.15h3.72s6.03,10.52,6.03,10.52l8.69.02,3.69,6.35Z"/>
  </g>
  <g id="use4354-5-2" data-name="use4354-5">
    <path id="path4260-0-4" data-name="path4260-0" class="cls-7" d="M50.48,30.96h-31.84s3.6-6.37,3.6-6.37l8.54.02-4.24-7.39,1.82-3.15h3.72s6.03,10.52,6.03,10.52l8.69.02,3.69,6.35Z"/>
  </g>
  <g id="use4362-2">
    <path id="path4260-0-5" data-name="path4260-0" class="cls-5" d="M51.73,53.07l15.92-27.58,3.72,6.3-4.29,7.39,8.52.02,1.82,3.15-1.85,3.22-12.13-.04-4.36,7.52-7.34.02Z"/>
  </g>
  <g id="use4362-2-2" data-name="use4362-2">
    <path id="path4260-0-6" data-name="path4260-0" class="cls-5" d="M51.73,53.07l15.92-27.58,3.72,6.3-4.29,7.39,8.52.02,1.82,3.15-1.85,3.22-12.13-.04-4.36,7.52-7.34.02Z"/>
  </g>
  <g>
    <path class="cls-2" d="M119.11,60.25h-6.35l-16.72-25.73c-.42-.65-.77-1.33-1.05-2.03h-.15c.13.75.2,2.35.2,4.81v22.95h-5.62V25.24h6.76l16.16,25.12c.68,1.04,1.12,1.76,1.32,2.15h.1c-.16-.93-.24-2.5-.24-4.71v-22.56h5.59v35.01Z"/>
    <path class="cls-2" d="M128.5,30c-.93,0-1.72-.3-2.38-.9-.66-.6-.99-1.37-.99-2.29s.33-1.7.99-2.32c.66-.62,1.45-.93,2.38-.93s1.77.31,2.44.93c.67.62,1,1.39,1,2.32,0,.88-.33,1.63-1,2.26-.67.63-1.48.94-2.44.94ZM131.31,60.25h-5.66v-25h5.66v25Z"/>
    <path class="cls-2" d="M159.1,35.25l-8.33,12.65,8.23,12.35h-6.57l-4.39-7.74c-.28-.47-.6-1.07-.98-1.81h-.1c-.07.15-.41.75-1.03,1.81l-4.47,7.74h-6.54l8.5-12.26-8.06-12.74h6.59l4.32,8.13c.33.6.64,1.22.95,1.86h.07l5.59-9.99h6.2Z"/>
    <path class="cls-2" d="M177.82,60.84c-5.05,0-9.09-1.64-12.12-4.91-3.04-3.27-4.55-7.53-4.55-12.77,0-5.63,1.55-10.12,4.64-13.48,3.09-3.35,7.29-5.03,12.6-5.03,4.92,0,8.87,1.63,11.88,4.88,3,3.26,4.5,7.51,4.5,12.77,0,5.71-1.54,10.23-4.61,13.55-3.08,3.32-7.19,4.98-12.33,4.98ZM178.09,29.76c-3.21,0-5.81,1.2-7.82,3.59-2.01,2.39-3.02,5.54-3.02,9.45s.98,7.02,2.93,9.4c1.95,2.38,4.51,3.56,7.67,3.56,3.35,0,6-1.13,7.93-3.39,1.94-2.26,2.91-5.43,2.91-9.5s-.94-7.41-2.82-9.69c-1.88-2.28-4.47-3.42-7.78-3.42Z"/>
    <path class="cls-2" d="M198.07,58.86v-5.98c.54.49,1.18.93,1.92,1.32.74.39,1.53.72,2.36.99.83.27,1.66.48,2.49.62s1.59.22,2.29.22c2.44,0,4.26-.41,5.46-1.22,1.2-.81,1.79-1.99,1.79-3.54,0-.83-.2-1.55-.6-2.16-.4-.61-.96-1.17-1.67-1.67-.72-.5-1.56-.99-2.53-1.45-.97-.46-2.01-.95-3.11-1.45-1.19-.63-2.29-1.28-3.32-1.93-1.03-.65-1.92-1.37-2.67-2.16-.76-.79-1.35-1.68-1.78-2.67-.43-.99-.65-2.16-.65-3.49,0-1.64.37-3.07,1.11-4.28.74-1.21,1.72-2.21,2.93-3,1.21-.79,2.59-1.38,4.14-1.76,1.55-.38,3.12-.57,4.74-.57,3.66,0,6.33.42,8.01,1.25v5.74c-1.99-1.43-4.54-2.15-7.67-2.15-.86,0-1.72.08-2.58.24-.85.16-1.62.43-2.29.81-.68.37-1.22.85-1.65,1.44-.42.59-.63,1.29-.63,2.12,0,.78.16,1.46.49,2.03.33.57.8,1.09,1.43,1.56.63.47,1.39.93,2.29,1.38.9.45,1.95.93,3.14,1.45,1.22.63,2.37,1.3,3.45,2,1.08.7,2.03,1.47,2.86,2.32.82.85,1.47,1.79,1.95,2.82.48,1.03.72,2.21.72,3.53,0,1.77-.36,3.27-1.07,4.49-.72,1.22-1.68,2.21-2.89,2.98-1.21.77-2.61,1.32-4.19,1.66-1.58.34-3.25.51-5,.51-.59,0-1.31-.05-2.16-.13-.85-.09-1.73-.22-2.62-.39-.9-.17-1.74-.38-2.54-.62-.8-.24-1.44-.52-1.93-.83Z"/>
  </g>
  <g>
    <path class="cls-2" d="M119.11,60.25h-6.35l-16.72-25.73c-.42-.65-.77-1.33-1.05-2.03h-.15c.13.75.2,2.35.2,4.81v22.95h-5.62V25.24h6.76l16.16,25.12c.68,1.04,1.12,1.76,1.32,2.15h.1c-.16-.93-.24-2.5-.24-4.71v-22.56h5.59v35.01Z"/>
    <path class="cls-2" d="M128.5,30c-.93,0-1.72-.3-2.38-.9-.66-.6-.99-1.37-.99-2.29s.33-1.7.99-2.32c.66-.62,1.45-.93,2.38-.93s1.77.31,2.44.93c.67.62,1,1.39,1,2.32,0,.88-.33,1.63-1,2.26-.67.63-1.48.94-2.44.94ZM131.31,60.25h-5.66v-25h5.66v25Z"/>
    <path class="cls-2" d="M159.1,35.25l-8.33,12.65,8.23,12.35h-6.57l-4.39-7.74c-.28-.47-.6-1.07-.98-1.81h-.1c-.07.15-.41.75-1.03,1.81l-4.47,7.74h-6.54l8.5-12.26-8.06-12.74h6.59l4.32,8.13c.33.6.64,1.22.95,1.86h.07l5.59-9.99h6.2Z"/>
    <path class="cls-2" d="M177.82,60.84c-5.05,0-9.09-1.64-12.12-4.91-3.04-3.27-4.55-7.53-4.55-12.77,0-5.63,1.55-10.12,4.64-13.48,3.09-3.35,7.29-5.03,12.6-5.03,4.92,0,8.87,1.63,11.88,4.88,3,3.26,4.5,7.51,4.5,12.77,0,5.71-1.54,10.23-4.61,13.55-3.08,3.32-7.19,4.98-12.33,4.98ZM178.09,29.76c-3.21,0-5.81,1.2-7.82,3.59-2.01,2.39-3.02,5.54-3.02,9.45s.98,7.02,2.93,9.4c1.95,2.38,4.51,3.56,7.67,3.56,3.35,0,6-1.13,7.93-3.39,1.94-2.26,2.91-5.43,2.91-9.5s-.94-7.41-2.82-9.69c-1.88-2.28-4.47-3.42-7.78-3.42Z"/>
    <path class="cls-2" d="M198.07,58.86v-5.98c.54.49,1.18.93,1.92,1.32.74.39,1.53.72,2.36.99.83.27,1.66.48,2.49.62s1.59.22,2.29.22c2.44,0,4.26-.41,5.46-1.22,1.2-.81,1.79-1.99,1.79-3.54,0-.83-.2-1.55-.6-2.16-.4-.61-.96-1.17-1.67-1.67-.72-.5-1.56-.99-2.53-1.45-.97-.46-2.01-.95-3.11-1.45-1.19-.63-2.29-1.28-3.32-1.93-1.03-.65-1.92-1.37-2.67-2.16-.76-.79-1.35-1.68-1.78-2.67-.43-.99-.65-2.16-.65-3.49,0-1.64.37-3.07,1.11-4.28.74-1.21,1.72-2.21,2.93-3,1.21-.79,2.59-1.38,4.14-1.76,1.55-.38,3.13-.57,4.74-.57,3.66,0,6.33.42,8.01,1.25v5.74c-1.99-1.43-4.54-2.15-7.67-2.15-.86,0-1.72.08-2.58.24-.85.16-1.62.43-2.29.81-.68.37-1.22.85-1.65,1.44-.42.59-.63,1.29-.63,2.12,0,.78.16,1.46.49,2.03.33.57.8,1.09,1.43,1.56.63.47,1.39.93,2.29,1.38.9.45,1.95.93,3.14,1.45,1.22.63,2.37,1.3,3.45,2,1.08.7,2.03,1.47,2.86,2.32.82.85,1.47,1.79,1.95,2.82.48,1.03.72,2.21.72,3.53,0,1.77-.36,3.27-1.07,4.49-.72,1.22-1.68,2.21-2.89,2.98-1.21.77-2.61,1.32-4.19,1.66-1.58.34-3.25.51-5,.51-.59,0-1.31-.05-2.16-.13-.85-.09-1.73-.22-2.62-.39-.9-.17-1.74-.38-2.54-.62-.8-.24-1.44-.52-1.93-.83Z"/>
  </g>
  <path class="cls-1" d="M235.9,67.79h-2.98V17.79h2.98v50Z"/>
  <path class="cls-1" d="M235.9,67.79h-2.98V17.79h2.98v50Z"/>
  <g>
    <path d="M290.94,25.24l-10.06,35.01h-3.42l-7.5-25.98c-.16-.62-.3-1.21-.4-1.78-.11-.57-.18-1.11-.21-1.64h-.1c-.03.47-.11.99-.22,1.55-.11.56-.27,1.17-.46,1.82l-7.79,26.03h-3.37l-10.33-35.01h3.61l7.71,27.44c.16.6.3,1.18.42,1.72.11.55.2,1.08.24,1.6h.12c.05-.37.14-.84.27-1.39.13-.55.31-1.2.54-1.93l8.18-27.44h2.59l7.67,27.54c.16.55.3,1.09.41,1.62.11.53.2,1.05.27,1.57h.1c.03-.33.09-.7.18-1.11.09-.42.2-.87.33-1.36l7.69-28.27h3.52Z"/>
    <path d="M293.22,57.54l1.66-2.44c1.38.98,2.78,1.68,4.2,2.12,1.42.44,3.04.66,4.86.66,2.23,0,4.06-.59,5.49-1.78,1.43-1.19,2.15-2.85,2.15-4.98,0-1.74-.58-3.17-1.73-4.27-1.16-1.11-3.04-2.12-5.66-3.03-3.3-1.16-5.73-2.49-7.26-3.99-1.54-1.51-2.31-3.43-2.31-5.77,0-2.85.98-5.13,2.94-6.84,1.96-1.71,4.55-2.56,7.78-2.56,1.43,0,2.84.18,4.24.52,1.39.35,2.8.92,4.24,1.7l-1.34,2.59c-1.22-.67-2.42-1.15-3.59-1.44-1.17-.29-2.45-.44-3.83-.44-2.15,0-3.88.55-5.2,1.64-1.32,1.09-1.98,2.59-1.98,4.49,0,1.64.6,2.99,1.79,4.05,1.2,1.06,3.15,2.06,5.87,3,3.3,1.14,5.68,2.47,7.14,4,1.46,1.53,2.18,3.54,2.18,6.03,0,2.98-.98,5.4-2.95,7.25-1.97,1.86-4.68,2.78-8.13,2.78-2.02,0-3.87-.26-5.55-.79-1.68-.53-3.35-1.36-4.99-2.5Z"/>
    <path d="M338.47,60.25h-17.31V25.24h3.27v32.06h14.04v2.95Z"/>
  </g>
  <g>
    <path d="M290.94,25.24l-10.06,35.01h-3.42l-7.5-25.98c-.16-.62-.3-1.21-.4-1.78-.11-.57-.18-1.11-.21-1.64h-.1c-.03.47-.11.99-.22,1.55-.11.56-.27,1.17-.46,1.82l-7.79,26.03h-3.37l-10.33-35.01h3.61l7.71,27.44c.16.6.3,1.18.42,1.72.11.55.2,1.08.24,1.6h.12c.05-.37.14-.84.27-1.39.13-.55.31-1.2.54-1.93l8.18-27.44h2.59l7.67,27.54c.16.55.3,1.09.41,1.62.11.53.2,1.05.27,1.57h.1c.03-.33.09-.7.18-1.11.09-.42.2-.87.33-1.36l7.69-28.27h3.52Z"/>
    <path d="M293.22,57.54l1.66-2.44c1.38.98,2.78,1.68,4.2,2.12,1.42.44,3.04.66,4.86.66,2.23,0,4.06-.59,5.49-1.78,1.43-1.19,2.15-2.85,2.15-4.98,0-1.74-.58-3.17-1.73-4.27-1.16-1.11-3.04-2.12-5.66-3.03-3.3-1.16-5.73-2.49-7.26-3.99-1.54-1.51-2.31-3.43-2.31-5.77,0-2.85.98-5.13,2.94-6.84,1.96-1.71,4.55-2.56,7.78-2.56,1.43,0,2.84.18,4.24.52,1.39.35,2.8.92,4.24,1.7l-1.34,2.59c-1.22-.67-2.42-1.15-3.59-1.44-1.17-.29-2.45-.44-3.83-.44-2.15,0-3.88.55-5.2,1.64-1.32,1.09-1.98,2.59-1.98,4.49,0,1.64.6,2.99,1.79,4.05,1.2,1.06,3.15,2.06,5.87,3,3.3,1.14,5.68,2.47,7.14,4,1.46,1.53,2.18,3.54,2.18,6.03,0,2.98-.98,5.4-2.95,7.25-1.97,1.86-4.68,2.78-8.13,2.78-2.02,0-3.87-.26-5.55-.79-1.68-.53-3.35-1.36-4.99-2.5Z"/>
    <path d="M338.47,60.25h-17.31V25.24h3.27v32.06h14.04v2.95Z"/>
  </g>
</svg>