<?xml version="1.0" encoding="UTF-8"?><svg id="b" xmlns="http://www.w3.org/2000/svg" xmlns:xlink="http://www.w3.org/1999/xlink" viewBox="0 0 401.27 348.11"><defs><linearGradient id="e" x1="302.04" y1="3232.17" x2="391.53" y2="3077.39" gradientTransform="translate(-2241.99 1156.99) rotate(60) scale(.8 -.8)" gradientUnits="userSpaceOnUse"><stop offset="0" stop-color="#699ad7"/><stop offset=".24" stop-color="#7eb1dd"/><stop offset="1" stop-color="#7ebae4"/></linearGradient><linearGradient id="k" x1="840.14" y1="-4955.21" x2="928.04" y2="-5110.59" gradientTransform="translate(-598.79 -3770.07) scale(.8 -.8)" gradientUnits="userSpaceOnUse"><stop offset="0" stop-color="#415e9a"/><stop offset=".23" stop-color="#4a6baf"/><stop offset="1" stop-color="#5277c3"/></linearGradient></defs><g id="c"><g id="d"><path id="f" d="m157.74,108.6l-97.77,169.33-22.83-38.7,26.35-45.35-52.33-.14L0,174.41l11.39-19.78,74.49.24,26.77-46.15,45.09-.12Z" style="fill:url(#e); fill-rule:evenodd;"/></g><g id="g"><path id="h" d="m165.24,243.96h195.53s-22.1,39.13-22.1,39.13l-52.45-.15,26.05,45.39-11.17,19.33-22.82.03-37.04-64.63-53.35-.11-22.65-38.99Z" style="fill:#00a7f7; fill-rule:evenodd;"/></g><g id="i"><path id="j" d="m279.04,169.76L181.29.42l44.93-.42,26.1,45.5L278.6.24h22.32s11.43,19.76,11.43,19.76l-37.45,64.39,26.58,46.26-22.44,39.11Z" style="fill:#6cbe00; fill-rule:evenodd;"/></g><path id="l" d="m122.45,178.35l97.76,169.34-44.93.42-26.1-45.5-26.29,45.25h-22.32s-11.43-19.76-11.43-19.76l37.45-64.39-26.58-46.26,22.44-39.11Z" style="fill:url(#k); fill-rule:evenodd;"/><g id="m"><path id="n" d="m235.85,103.77H40.32s22.1-39.13,22.1-39.13l52.45.15-26.05-45.39L99.99.07l22.82-.03,37.04,64.63,53.35.11,22.65,38.99Z" style="fill:#ff3e00; fill-rule:evenodd;"/></g><g id="o"><path id="p" d="m243.54,239.49l97.77-169.33,22.83,38.7-26.35,45.35,52.33.14,11.15,19.34-11.39,19.78-74.49-.24-26.77,46.15-45.09.12Z" style="fill:#ffb700; fill-rule:evenodd;"/></g></g></svg>